<svg width="126" height="124" viewBox="0 0 126 124" fill="none" xmlns="http://www.w3.org/2000/svg" xmlns:xlink="http://www.w3.org/1999/xlink">
<path d="M63,0.5C54.792,0.5 46.665,2.117 39.082,5.258C31.499,8.398 24.609,13.002 18.806,18.806C7.085,30.527 0.5,46.424 0.5,63C0.5,90.625 18.438,114.062 43.25,122.375C46.375,122.875 47.375,120.938 47.375,119.25L47.375,108.688C30.062,112.438 26.375,100.312 26.375,100.312C23.5,93.062 19.438,91.125 19.438,91.125C13.75,87.25 19.875,87.375 19.875,87.375C26.125,87.812 29.438,93.812 29.438,93.812C34.875,103.312 44.062,100.5 47.625,99C48.188,94.938 49.812,92.188 51.562,90.625C37.688,89.062 23.125,83.688 23.125,59.875C23.125,52.938 25.5,47.375 29.562,42.938C28.938,41.375 26.75,34.875 30.188,26.438C30.188,26.438 35.438,24.75 47.375,32.812C52.312,31.438 57.688,30.75 63,30.75C68.312,30.75 73.688,31.438 78.625,32.812C90.562,24.75 95.812,26.438 95.812,26.438C99.25,34.875 97.062,41.375 96.438,42.938C100.5,47.375 102.875,52.938 102.875,59.875C102.875,83.75 88.25,89 74.312,90.562C76.562,92.5 78.625,96.312 78.625,102.125L78.625,119.25C78.625,120.938 79.625,122.938 82.812,122.375C107.625,114 125.5,90.625 125.5,63C125.5,54.792 123.883,46.665 120.742,39.082C117.602,31.499 112.998,24.609 107.194,18.806C101.391,13.002 94.501,8.398 86.918,5.258C79.335,2.117 71.208,0.5 63,0.5Z" fill="#F8F8F8"/>
</svg>
