<svg width="126" height="126" viewBox="0 0 126 126" fill="none" xmlns="http://www.w3.org/2000/svg" xmlns:xlink="http://www.w3.org/1999/xlink">
<path d="M69.425,0.5C76.456,0.519 80.025,0.556 83.106,0.644L84.319,0.687C85.719,0.738 87.1,0.8 88.769,0.875C95.419,1.188 99.956,2.238 103.938,3.781C108.063,5.369 111.538,7.519 115.013,10.988C118.191,14.112 120.65,17.891 122.219,22.062C123.763,26.044 124.813,30.581 125.125,37.237C125.2,38.9 125.263,40.281 125.313,41.688L125.35,42.9C125.444,45.975 125.481,49.544 125.494,56.575L125.5,61.238L125.5,69.425C125.515,73.984 125.467,78.543 125.356,83.1L125.319,84.312C125.269,85.719 125.206,87.1 125.131,88.762C124.819,95.419 123.756,99.95 122.219,103.937C120.654,108.111 118.195,111.891 115.013,115.013C111.887,118.189 108.108,120.648 103.938,122.219C99.956,123.763 95.419,124.812 88.769,125.125C87.286,125.195 85.802,125.257 84.319,125.312L83.106,125.35C80.025,125.438 76.456,125.481 69.425,125.494L64.763,125.5L56.581,125.5C52.02,125.516 47.46,125.468 42.9,125.356L41.688,125.319C40.204,125.263 38.72,125.198 37.238,125.125C30.588,124.812 26.05,123.763 22.063,122.219C17.892,120.652 14.114,118.193 10.994,115.013C7.813,111.889 5.351,108.11 3.781,103.937C2.237,99.956 1.187,95.419 0.875,88.762C0.805,87.279 0.743,85.796 0.687,84.312L0.656,83.1C0.541,78.543 0.489,73.984 0.5,69.425L0.5,56.575C0.483,52.016 0.528,47.457 0.637,42.9L0.681,41.688C0.731,40.281 0.794,38.9 0.869,37.237C1.181,30.581 2.231,26.05 3.775,22.062C5.344,17.887 7.811,14.106 11,10.988C14.119,7.809 17.895,5.35 22.063,3.781C26.05,2.238 30.581,1.188 37.238,0.875C38.9,0.8 40.288,0.738 41.688,0.687L42.9,0.65C47.457,0.539 52.016,0.491 56.575,0.506L69.425,0.5ZM63,31.75C54.712,31.75 46.763,35.042 40.903,40.903C35.042,46.763 31.75,54.712 31.75,63C31.75,71.288 35.042,79.237 40.903,85.097C46.763,90.958 54.712,94.25 63,94.25C71.288,94.25 79.237,90.958 85.097,85.097C90.958,79.237 94.25,71.288 94.25,63C94.25,54.712 90.958,46.763 85.097,40.903C79.237,35.042 71.288,31.75 63,31.75ZM63,44.25C65.462,44.25 67.901,44.734 70.176,45.676C72.451,46.618 74.518,47.999 76.259,49.74C78.001,51.48 79.382,53.547 80.325,55.822C81.267,58.097 81.753,60.535 81.753,62.997C81.754,65.459 81.269,67.897 80.327,70.172C79.385,72.447 78.004,74.515 76.264,76.256C74.523,77.997 72.456,79.379 70.181,80.322C67.907,81.264 65.469,81.75 63.006,81.75C58.033,81.75 53.264,79.775 49.748,76.258C46.232,72.742 44.256,67.973 44.256,63C44.256,58.027 46.232,53.258 49.748,49.742C53.264,46.225 58.033,44.25 63.006,44.25M95.819,22.375C93.747,22.375 91.76,23.198 90.294,24.663C88.829,26.128 88.006,28.115 88.006,30.188C88.006,32.26 88.829,34.247 90.294,35.712C91.76,37.177 93.747,38 95.819,38C97.891,38 99.878,37.177 101.343,35.712C102.808,34.247 103.631,32.26 103.631,30.188C103.631,28.115 102.808,26.128 101.343,24.663C99.878,23.198 97.891,22.375 95.819,22.375Z" fill="#F8F8F8"/>
</svg>
