<svg width="114" height="114" viewBox="0 0 114 114" fill="none" xmlns="http://www.w3.org/2000/svg" xmlns:xlink="http://www.w3.org/1999/xlink">
<path d="M100.75,0.75C104.065,0.75 107.245,2.067 109.589,4.411C111.933,6.755 113.25,9.935 113.25,13.25L113.25,100.75C113.25,104.065 111.933,107.245 109.589,109.589C107.245,111.933 104.065,113.25 100.75,113.25L13.25,113.25C9.935,113.25 6.755,111.933 4.411,109.589C2.067,107.245 0.75,104.065 0.75,100.75L0.75,13.25C0.75,9.935 2.067,6.755 4.411,4.411C6.755,2.067 9.935,0.75 13.25,0.75L100.75,0.75ZM97.625,97.625L97.625,64.5C97.625,59.096 95.478,53.914 91.657,50.093C87.836,46.272 82.654,44.125 77.25,44.125C71.938,44.125 65.75,47.375 62.75,52.25L62.75,45.312L45.312,45.312L45.312,97.625L62.75,97.625L62.75,66.812C62.75,62 66.625,58.062 71.438,58.062C73.758,58.062 75.984,58.984 77.625,60.625C79.266,62.266 80.188,64.492 80.188,66.812L80.188,97.625L97.625,97.625ZM25,35.5C27.785,35.5 30.455,34.394 32.425,32.425C34.394,30.455 35.5,27.785 35.5,25C35.5,19.188 30.812,14.438 25,14.438C22.199,14.438 19.512,15.55 17.531,17.531C15.55,19.512 14.438,22.199 14.438,25C14.438,30.812 19.188,35.5 25,35.5ZM33.688,97.625L33.688,45.312L16.375,45.312L16.375,97.625L33.688,97.625Z" fill="#F8F8F8"/>
</svg>
